<svg xmlns="http://www.w3.org/2000/svg" width="48" height="38" viewBox="0 0 48 38"><defs><style>.cls-1{fill-rule:evenodd;fill:url(#linear-gradient)}</style><linearGradient id="linear-gradient" x1="1191" y1="1829" x2="1229" y2="1867" gradientUnits="userSpaceOnUse"><stop offset="0" stop-color="#802775"/><stop offset="1" stop-color="#dc071d"/></linearGradient></defs><path id="Cofee_cup_2" data-name="Cofee cup 2" class="cls-1" d="M1234 1845.57a10.576 10.576 0 0 0-9.39-10.58v-4.87a1.1 1.1 0 0 0-1.08-1.11h-36.46a1.1 1.1 0 0 0-1.08 1.11v23.91a8.458 8.458 0 0 0 7.15 8.4v3.46a1.1 1.1 0 0 0 1.09 1.1h22.14a1.1 1.1 0 0 0 1.09-1.1v-3.45a8.273 8.273 0 0 0 6.81-6.25 10.581 10.581 0 0 0 9.73-10.62zm-8.67-3.54a3.472 3.472 0 0 1 .75.52 4.044 4.044 0 0 1 .37.35 4.345 4.345 0 0 1 .53.81 3.844 3.844 0 0 1 .21.4 3.958 3.958 0 0 1 .29 1.46 3.866 3.866 0 0 1-.29 1.45 2.632 2.632 0 0 1-.21.41 3.169 3.169 0 0 1-.9 1.16 3.472 3.472 0 0 1-.75.52 2.768 2.768 0 0 1-.46.22 2 2 0 0 1-.26.05v-7.63c.09.03.18.03.26.06a3.881 3.881 0 0 1 .46.22zm-10.05 22.75h-19.97v-2.23h19.97v2.23zm.98-4.44h-21.92a6.251 6.251 0 0 1-6.18-6.31v-22.8h34.28v22.8a7.13 7.13 0 0 1-.09.94 6.19 6.19 0 0 1-6.09 5.37zm8.35-6.36v-2.25a.142.142 0 0 1 .06-.02 5.834 5.834 0 0 0 1.77-.67l.27-.15a6 6 0 0 0 1.38-1.19c.07-.08.13-.16.2-.24a6.729 6.729 0 0 0 .94-1.63 2.172 2.172 0 0 1 .07-.24 6 6 0 0 0 0-4.04 2.172 2.172 0 0 1-.07-.24 6.859 6.859 0 0 0-.94-1.62l-.2-.26a6.485 6.485 0 0 0-1.38-1.18c-.09-.06-.18-.1-.27-.15a5.834 5.834 0 0 0-1.77-.67.142.142 0 0 1-.06-.02v-2.25a8.508 8.508 0 0 1 0 16.82z" transform="translate(-1186 -1829)"/></svg>