<svg xmlns="http://www.w3.org/2000/svg" xmlns:xlink="http://www.w3.org/1999/xlink" width="50" height="41" viewBox="0 0 50 41">
  <metadata><?xpacket begin="﻿" id="W5M0MpCehiHzreSzNTczkc9d"?>
<x:xmpmeta xmlns:x="adobe:ns:meta/" x:xmptk="Adobe XMP Core 5.6-c138 79.159824, 2016/09/14-01:09:01        ">
   <rdf:RDF xmlns:rdf="http://www.w3.org/1999/02/22-rdf-syntax-ns#">
      <rdf:Description rdf:about=""/>
   </rdf:RDF>
</x:xmpmeta>
                                                                                                    
                                                                                                    
                                                                                                    
                                                                                                    
                                                                                                    
                                                                                                    
                                                                                                    
                                                                                                    
                                                                                                    
                                                                                                    
                                                                                                    
                                                                                                    
                                                                                                    
                                                                                                    
                                                                                                    
                                                                                                    
                                                                                                    
                                                                                                    
                                                                                                    
                                                                                                    
                           
<?xpacket end="w"?></metadata>
<defs>
    <style>
      .cls-1 {
        fill-rule: evenodd;
        fill: url(#linear-gradient);
      }
    </style>
    <linearGradient id="linear-gradient" x1="389.5" y1="1546" x2="430.5" y2="1587" gradientUnits="userSpaceOnUse">
      <stop offset="0" stop-color="#802775"/>
      <stop offset="1" stop-color="#dc071d"/>
    </linearGradient>
  </defs>
  <path id="Diamond" class="cls-1" d="M434.989,1558.95a0.6,0.6,0,0,0-.04-0.1,0.822,0.822,0,0,0-.029-0.25l-5.138-12.07a0.9,0.9,0,0,0-.834-0.54H391.036a0.9,0.9,0,0,0-.834.54l-5.141,12.07a0.932,0.932,0,0,0-.032.25,1.011,1.011,0,0,0-.037.1c0,0.02.02,0.03,0.02,0.05a0.867,0.867,0,0,0,.2.54l24.095,27.16a0.279,0.279,0,0,1,.076.04,1.246,1.246,0,0,0,.2.15,0.1,0.1,0,0,0,.042.04,0.864,0.864,0,0,0,.726,0,0.1,0.1,0,0,0,.042-0.04,1.1,1.1,0,0,0,.194-0.15,0.346,0.346,0,0,1,.079-0.04l24.1-27.16a0.87,0.87,0,0,0,.207-0.54C434.969,1558.98,434.989,1558.97,434.989,1558.95Zm-18.853-11.17,4.432,10.27H399.414l4.434-10.27h12.288Zm4.418,12.07-10.567,24.01-10.56-24.01h21.127Zm-23.1,0,9.392,21.36-18.948-21.36h9.556Zm25.081,0h9.552l-18.948,21.35Zm10.193-1.8h-10.19l-4.432-10.27h10.246Zm-41.09-10.27h10.251l-4.435,10.27H387.258Z" transform="translate(-385 -1546)"/>
</svg>
