<svg xmlns="http://www.w3.org/2000/svg" width="50" height="41" viewBox="0 0 50 41"><defs><style>.cls-1{fill-rule:evenodd;fill:url(#linear-gradient)}</style><linearGradient id="linear-gradient" x1="389.5" y1="1546" x2="430.5" y2="1587" gradientUnits="userSpaceOnUse"><stop offset="0" stop-color="#802775"/><stop offset="1" stop-color="#dc071d"/></linearGradient></defs><path id="Diamond" class="cls-1" d="M434.989 1558.95a.6.6 0 0 0-.04-.1.822.822 0 0 0-.029-.25l-5.138-12.07a.9.9 0 0 0-.834-.54h-37.912a.9.9 0 0 0-.834.54l-5.141 12.07a.932.932 0 0 0-.032.25 1.011 1.011 0 0 0-.037.1c0 .02.02.03.02.05a.867.867 0 0 0 .2.54l24.095 27.16a.279.279 0 0 1 .076.04 1.246 1.246 0 0 0 .2.15.1.1 0 0 0 .042.04.864.864 0 0 0 .726 0 .1.1 0 0 0 .042-.04 1.1 1.1 0 0 0 .194-.15.346.346 0 0 1 .079-.04l24.1-27.16a.87.87 0 0 0 .207-.54c-.004-.02.016-.03.016-.05zm-18.853-11.17l4.432 10.27h-21.154l4.434-10.27h12.288zm4.418 12.07l-10.567 24.01-10.56-24.01h21.127zm-23.1 0l9.392 21.36-18.948-21.36h9.556zm25.081 0h9.552l-18.948 21.35zm10.193-1.8h-10.19l-4.432-10.27h10.246zm-41.09-10.27h10.251l-4.435 10.27h-10.196z" transform="translate(-385 -1546)"/></svg>