<svg xmlns="http://www.w3.org/2000/svg" width="50" height="41" viewBox="0 0 50 41"><defs><style>.cls-1{fill-rule:evenodd;fill:url(#linear-gradient)}</style><linearGradient id="linear-gradient" x1="389.5" y1="1265" x2="430.5" y2="1306" gradientUnits="userSpaceOnUse"><stop offset="0" stop-color="#802775"/><stop offset="1" stop-color="#dc071d"/></linearGradient></defs><path id="Folder" class="cls-1" d="M434.093 1271.03h-20.548l-2.748-5.54a.9.9 0 0 0-.8-.49h-21.086a.9.9 0 0 0-.8.49l-3.011 6.05a1.016 1.016 0 0 0-.016.19 1.049 1.049 0 0 0-.081.2v33.17a.9.9 0 0 0 .9.89h48.193a.9.9 0 0 0 .895-.89v-33.17a.9.9 0 0 0-.898-.9zm-44.628-4.24h19.975l2.1 4.24h-24.188zm43.729 37.41H386.8v-31.37h26.082a.6.6 0 0 0 .127.03.768.768 0 0 0 .147-.03h20.043v31.37z" transform="translate(-385 -1265)"/></svg>