<svg xmlns="http://www.w3.org/2000/svg" xmlns:xlink="http://www.w3.org/1999/xlink" width="50" height="41" viewBox="0 0 50 41">
  <metadata><?xpacket begin="﻿" id="W5M0MpCehiHzreSzNTczkc9d"?>
<x:xmpmeta xmlns:x="adobe:ns:meta/" x:xmptk="Adobe XMP Core 5.6-c138 79.159824, 2016/09/14-01:09:01        ">
   <rdf:RDF xmlns:rdf="http://www.w3.org/1999/02/22-rdf-syntax-ns#">
      <rdf:Description rdf:about=""/>
   </rdf:RDF>
</x:xmpmeta>
                                                                                                    
                                                                                                    
                                                                                                    
                                                                                                    
                                                                                                    
                                                                                                    
                                                                                                    
                                                                                                    
                                                                                                    
                                                                                                    
                                                                                                    
                                                                                                    
                                                                                                    
                                                                                                    
                                                                                                    
                                                                                                    
                                                                                                    
                                                                                                    
                                                                                                    
                                                                                                    
                           
<?xpacket end="w"?></metadata>
<defs>
    <style>
      .cls-1 {
        fill-rule: evenodd;
        fill: url(#linear-gradient);
      }
    </style>
    <linearGradient id="linear-gradient" x1="389.5" y1="1265" x2="430.5" y2="1306" gradientUnits="userSpaceOnUse">
      <stop offset="0" stop-color="#802775"/>
      <stop offset="1" stop-color="#dc071d"/>
    </linearGradient>
  </defs>
  <path id="Folder" class="cls-1" d="M434.093,1271.03H413.545l-2.748-5.54a0.9,0.9,0,0,0-.8-0.49H388.911a0.9,0.9,0,0,0-.8.49l-3.011,6.05a1.016,1.016,0,0,0-.016.19,1.049,1.049,0,0,0-.081.2v33.17a0.9,0.9,0,0,0,.9.89h48.193a0.9,0.9,0,0,0,.895-0.89v-33.17A0.9,0.9,0,0,0,434.093,1271.03Zm-44.628-4.24H409.44l2.1,4.24H387.352Zm43.729,37.41H386.8v-31.37h26.082a0.6,0.6,0,0,0,.127.03,0.768,0.768,0,0,0,.147-0.03h20.043v31.37Z" transform="translate(-385 -1265)"/>
</svg>
