<svg xmlns="http://www.w3.org/2000/svg" xmlns:xlink="http://www.w3.org/1999/xlink" width="50" height="40" viewBox="0 0 50 40">
  <metadata><?xpacket begin="﻿" id="W5M0MpCehiHzreSzNTczkc9d"?>
<x:xmpmeta xmlns:x="adobe:ns:meta/" x:xmptk="Adobe XMP Core 5.6-c138 79.159824, 2016/09/14-01:09:01        ">
   <rdf:RDF xmlns:rdf="http://www.w3.org/1999/02/22-rdf-syntax-ns#">
      <rdf:Description rdf:about=""/>
   </rdf:RDF>
</x:xmpmeta>
                                                                                                    
                                                                                                    
                                                                                                    
                                                                                                    
                                                                                                    
                                                                                                    
                                                                                                    
                                                                                                    
                                                                                                    
                                                                                                    
                                                                                                    
                                                                                                    
                                                                                                    
                                                                                                    
                                                                                                    
                                                                                                    
                                                                                                    
                                                                                                    
                                                                                                    
                                                                                                    
                           
<?xpacket end="w"?></metadata>
<defs>
    <style>
      .cls-1 {
        fill-rule: evenodd;
        fill: url(#linear-gradient);
      }
    </style>
    <linearGradient id="linear-gradient" x1="790" y1="1546" x2="830" y2="1586" gradientUnits="userSpaceOnUse">
      <stop offset="0" stop-color="#802775"/>
      <stop offset="1" stop-color="#dc071d"/>
    </linearGradient>
  </defs>
  <path id="Headset" class="cls-1" d="M828.361,1567.22a9.836,9.836,0,0,0-2.412-.5v-5.13a15.962,15.962,0,0,0-31.915,0v5.13a10.111,10.111,0,0,0-2.452.51,9.561,9.561,0,0,0,0,18.17,9.9,9.9,0,0,0,3.314.59h3.011a0.884,0.884,0,0,0,.9-0.87v-17.6a0.885,0.885,0,0,0-.9-0.88h-2.08v-5.05a14.17,14.17,0,0,1,28.332,0v5.05h-2.08a0.887,0.887,0,0,0-.9.88v17.6a0.885,0.885,0,0,0,.9.87h3.014a9.942,9.942,0,0,0,3.268-.58A9.554,9.554,0,0,0,828.361,1567.22Zm-41.567,9.1a7.9,7.9,0,0,1,4.193-6.91v13.81A7.9,7.9,0,0,1,786.794,1576.32Zm10.218,7.92H794.9a7.529,7.529,0,0,1-2.116-.31V1568.7a7.509,7.509,0,0,1,2.116-.3h2.116v15.84Zm25.965,0V1568.4h2.116a7.694,7.694,0,0,1,2.077.29v15.26a8.11,8.11,0,0,1-2.077.29h-2.116Zm5.987-1V1569.4A7.774,7.774,0,0,1,828.964,1583.24Z" transform="translate(-785 -1546)"/>
</svg>
