<svg xmlns="http://www.w3.org/2000/svg" width="50" height="40" viewBox="0 0 50 40"><defs><style>.cls-1{fill-rule:evenodd;fill:url(#linear-gradient)}</style><linearGradient id="linear-gradient" x1="790" y1="1546" x2="830" y2="1586" gradientUnits="userSpaceOnUse"><stop offset="0" stop-color="#802775"/><stop offset="1" stop-color="#dc071d"/></linearGradient></defs><path id="Headset" class="cls-1" d="M828.361 1567.22a9.836 9.836 0 0 0-2.412-.5v-5.13a15.962 15.962 0 0 0-31.915 0v5.13a10.111 10.111 0 0 0-2.452.51 9.561 9.561 0 0 0 0 18.17 9.9 9.9 0 0 0 3.314.59h3.011a.884.884 0 0 0 .9-.87v-17.6a.885.885 0 0 0-.9-.88h-2.08v-5.05a14.17 14.17 0 0 1 28.332 0v5.05h-2.08a.887.887 0 0 0-.9.88v17.6a.885.885 0 0 0 .9.87h3.014a9.942 9.942 0 0 0 3.268-.58 9.554 9.554 0 0 0 0-18.19zm-41.567 9.1a7.9 7.9 0 0 1 4.193-6.91v13.81a7.9 7.9 0 0 1-4.193-6.9zm10.218 7.92H794.9a7.529 7.529 0 0 1-2.116-.31v-15.23a7.509 7.509 0 0 1 2.116-.3h2.116v15.84zm25.965 0v-15.84h2.116a7.694 7.694 0 0 1 2.077.29v15.26a8.11 8.11 0 0 1-2.077.29h-2.116zm5.987-1v-13.84a7.774 7.774 0 0 1 0 13.84z" transform="translate(-785 -1546)"/></svg>