<svg xmlns="http://www.w3.org/2000/svg" width="49" height="46.03" viewBox="0 0 49 46.03"><defs><style>.cls-1{fill-rule:evenodd;fill:url(#linear-gradient)}</style><linearGradient id="linear-gradient" x1="1187.485" y1="1264.97" x2="1233.515" y2="1311" gradientUnits="userSpaceOnUse"><stop offset="0" stop-color="#802775"/><stop offset="1" stop-color="#dc071d"/></linearGradient></defs><path id="Pencil" class="cls-1" d="M1234.92 1281.03a28.66 28.66 0 0 0-14.62-15.95 1.04 1.04 0 0 0-1.15.17l-21.81 19.86-2.52 2.29a1.081 1.081 0 0 0-.32.43.793.793 0 0 0-.04.09l-5.86 15.19-2.51 6.48a1.048 1.048 0 0 0 .21 1.08 1.029 1.029 0 0 0 .77.33.9.9 0 0 0 .28-.04l6.71-1.89 15.78-4.47a.928.928 0 0 0 .29-.13 1.7 1.7 0 0 1 .14-.1l2.57-2.35 21.81-19.85a1.038 1.038 0 0 0 .27-1.14zm-44.79 23.9c.04.02.09.04.13.06a5.172 5.172 0 0 1 2.06 2.25c.02.04.04.1.06.14l-3.59 1.02zm18.91-2.26l-14.61 4.13a2 2 0 0 0-.16-.24 7.4 7.4 0 0 0-1.27-2 7.924 7.924 0 0 0-1.88-1.45c-.09-.05-.14-.12-.23-.17l5.46-14.12 1.63-1.48 1.32 1.44 11.37 12.41zm3.16-2.88l-3.3-3.61 17.34-15.77a1.077 1.077 0 0 0 .34-.78 1.038 1.038 0 0 0-.27-.69 1.054 1.054 0 0 0-1.48-.07l-17.33 15.78-.68-.74-2.6-2.84 17.33-15.78a1.042 1.042 0 0 0 .07-1.47 1.052 1.052 0 0 0-1.47-.07l-17.34 15.78-3.29-3.6 20.51-18.67a26.7 26.7 0 0 1 12.69 13.85z" transform="translate(-1186 -1264.97)"/></svg>