<svg xmlns="http://www.w3.org/2000/svg" xmlns:xlink="http://www.w3.org/1999/xlink" width="50" height="50" viewBox="0 0 50 50">
  <metadata><?xpacket begin="﻿" id="W5M0MpCehiHzreSzNTczkc9d"?>
<x:xmpmeta xmlns:x="adobe:ns:meta/" x:xmptk="Adobe XMP Core 5.6-c138 79.159824, 2016/09/14-01:09:01        ">
   <rdf:RDF xmlns:rdf="http://www.w3.org/1999/02/22-rdf-syntax-ns#">
      <rdf:Description rdf:about=""/>
   </rdf:RDF>
</x:xmpmeta>
                                                                                                    
                                                                                                    
                                                                                                    
                                                                                                    
                                                                                                    
                                                                                                    
                                                                                                    
                                                                                                    
                                                                                                    
                                                                                                    
                                                                                                    
                                                                                                    
                                                                                                    
                                                                                                    
                                                                                                    
                                                                                                    
                                                                                                    
                                                                                                    
                                                                                                    
                                                                                                    
                           
<?xpacket end="w"?></metadata>
<defs>
    <style>
      .cls-1 {
        fill-rule: evenodd;
        fill: url(#linear-gradient);
      }
    </style>
    <linearGradient id="linear-gradient" x1="835" y1="1311" x2="785" y2="1261" gradientUnits="userSpaceOnUse">
      <stop offset="0" stop-color="#802775"/>
      <stop offset="1" stop-color="#dc071d"/>
    </linearGradient>
  </defs>
  <path id="Settings" class="cls-1" d="M810,1292.92a6.92,6.92,0,1,1,6.914-6.92A6.926,6.926,0,0,1,810,1292.92Zm0-12.05a5.13,5.13,0,1,0,5.12,5.13A5.133,5.133,0,0,0,810,1280.87Zm-3.015,30.12a0.9,0.9,0,0,1-.869-0.67l-1.543-6.18a18.866,18.866,0,0,1-3.532-1.5l-5.489,3.3a0.912,0.912,0,0,1-1.094-.13l-4.264-4.27a0.891,0.891,0,0,1-.134-1.09l3.3-5.49a18.535,18.535,0,0,1-1.468-3.53l-6.2-1.55a0.9,0.9,0,0,1-.68-0.87v-6.02a0.893,0.893,0,0,1,.68-0.87l6.169-1.54a19.447,19.447,0,0,1,1.5-3.54l-3.295-5.49a0.906,0.906,0,0,1,.134-1.1l4.258-4.26a0.889,0.889,0,0,1,1.1-.13l5.488,3.29a19.17,19.17,0,0,1,3.526-1.46l1.549-6.21a0.9,0.9,0,0,1,.87-0.68H813a0.894,0.894,0,0,1,.869.68l1.543,6.18a19.47,19.47,0,0,1,3.529,1.49l5.5-3.3a0.915,0.915,0,0,1,1.094.14l4.258,4.26a0.886,0.886,0,0,1,.137,1.09l-3.295,5.5a19.1,19.1,0,0,1,1.462,3.52l6.211,1.55a0.9,0.9,0,0,1,.681.87V1289a0.9,0.9,0,0,1-.681.87l-6.211,1.56a18.792,18.792,0,0,1-1.458,3.52l3.3,5.49a0.9,0.9,0,0,1-.136,1.1l-4.258,4.26a0.915,0.915,0,0,1-1.094.14l-5.5-3.3a19.481,19.481,0,0,1-3.532,1.5l-1.537,6.17a0.9,0.9,0,0,1-.872.68h-6.026Zm-5.96-10.28a0.908,0.908,0,0,1,.449.12,17.709,17.709,0,0,0,4.088,1.73,0.92,0.92,0,0,1,.629.65l1.5,5.99h4.623l1.494-6a0.913,0.913,0,0,1,.625-0.64,17.928,17.928,0,0,0,4.089-1.73,0.9,0.9,0,0,1,.908,0l5.339,3.21,3.272-3.28-3.207-5.33a0.9,0.9,0,0,1-.01-0.91,17.038,17.038,0,0,0,1.69-4.07,0.878,0.878,0,0,1,.648-0.63l6.035-1.52v-4.62l-6.035-1.51a0.9,0.9,0,0,1-.648-0.63,17.258,17.258,0,0,0-1.69-4.07,0.91,0.91,0,0,1,.01-0.91l3.2-5.34-3.268-3.27-5.339,3.21a0.872,0.872,0,0,1-.908,0,18.061,18.061,0,0,0-4.089-1.73,0.879,0.879,0,0,1-.625-0.64l-1.5-6h-4.622l-1.508,6.03a0.883,0.883,0,0,1-.634.65,17.55,17.55,0,0,0-4.076,1.7,0.9,0.9,0,0,1-.908-0.01l-5.333-3.21-3.268,3.28,3.2,5.33a0.9,0.9,0,0,1,.007.91,17.978,17.978,0,0,0-1.732,4.1,0.878,0.878,0,0,1-.648.62l-5.987,1.5v4.62l6.029,1.51a0.909,0.909,0,0,1,.648.64,17.152,17.152,0,0,0,1.7,4.07,0.892,0.892,0,0,1-.01.91l-3.2,5.33,3.272,3.28,5.332-3.21A0.862,0.862,0,0,1,801.025,1300.71Z" transform="translate(-785 -1261)"/>
</svg>
