<svg xmlns="http://www.w3.org/2000/svg" width="50" height="50" viewBox="0 0 50 50"><defs><style>.cls-1{fill-rule:evenodd;fill:url(#linear-gradient)}</style><linearGradient id="linear-gradient" x1="835" y1="1311" x2="785" y2="1261" gradientUnits="userSpaceOnUse"><stop offset="0" stop-color="#802775"/><stop offset="1" stop-color="#dc071d"/></linearGradient></defs><path id="Settings" class="cls-1" d="M810 1292.92a6.92 6.92 0 1 1 6.914-6.92 6.926 6.926 0 0 1-6.914 6.92zm0-12.05a5.13 5.13 0 1 0 5.12 5.13 5.133 5.133 0 0 0-5.12-5.13zm-3.015 30.12a.9.9 0 0 1-.869-.67l-1.543-6.18a18.866 18.866 0 0 1-3.532-1.5l-5.489 3.3a.912.912 0 0 1-1.094-.13l-4.264-4.27a.891.891 0 0 1-.134-1.09l3.3-5.49a18.535 18.535 0 0 1-1.468-3.53l-6.2-1.55a.9.9 0 0 1-.68-.87v-6.02a.893.893 0 0 1 .68-.87l6.169-1.54a19.447 19.447 0 0 1 1.5-3.54l-3.295-5.49a.906.906 0 0 1 .134-1.1l4.258-4.26a.889.889 0 0 1 1.1-.13l5.488 3.29a19.17 19.17 0 0 1 3.526-1.46l1.549-6.21a.9.9 0 0 1 .87-.68H813a.894.894 0 0 1 .869.68l1.543 6.18a19.47 19.47 0 0 1 3.529 1.49l5.5-3.3a.915.915 0 0 1 1.094.14l4.258 4.26a.886.886 0 0 1 .137 1.09l-3.295 5.5a19.1 19.1 0 0 1 1.462 3.52l6.211 1.55a.9.9 0 0 1 .681.87v6.02a.9.9 0 0 1-.681.87l-6.211 1.56a18.792 18.792 0 0 1-1.458 3.52l3.3 5.49a.9.9 0 0 1-.136 1.1l-4.258 4.26a.915.915 0 0 1-1.094.14l-5.5-3.3a19.481 19.481 0 0 1-3.532 1.5l-1.537 6.17a.9.9 0 0 1-.872.68h-6.026zm-5.96-10.28a.908.908 0 0 1 .449.12 17.709 17.709 0 0 0 4.088 1.73.92.92 0 0 1 .629.65l1.5 5.99h4.623l1.494-6a.913.913 0 0 1 .625-.64 17.928 17.928 0 0 0 4.089-1.73.9.9 0 0 1 .908 0l5.339 3.21 3.272-3.28-3.207-5.33a.9.9 0 0 1-.01-.91 17.038 17.038 0 0 0 1.69-4.07.878.878 0 0 1 .648-.63l6.035-1.52v-4.62l-6.035-1.51a.9.9 0 0 1-.648-.63 17.258 17.258 0 0 0-1.69-4.07.91.91 0 0 1 .01-.91l3.2-5.34-3.268-3.27-5.339 3.21a.872.872 0 0 1-.908 0 18.061 18.061 0 0 0-4.089-1.73.879.879 0 0 1-.625-.64l-1.5-6h-4.622l-1.508 6.03a.883.883 0 0 1-.634.65 17.55 17.55 0 0 0-4.076 1.7.9.9 0 0 1-.908-.01l-5.333-3.21-3.268 3.28 3.2 5.33a.9.9 0 0 1 .007.91 17.978 17.978 0 0 0-1.732 4.1.878.878 0 0 1-.648.62l-5.987 1.5v4.62l6.029 1.51a.909.909 0 0 1 .648.64 17.152 17.152 0 0 0 1.7 4.07.892.892 0 0 1-.01.91l-3.2 5.33 3.272 3.28 5.332-3.21a.862.862 0 0 1 .458-.13z" transform="translate(-785 -1261)"/></svg>