<svg xmlns="http://www.w3.org/2000/svg" xmlns:xlink="http://www.w3.org/1999/xlink" width="50" height="38" viewBox="0 0 50 38">
  <metadata><?xpacket begin="﻿" id="W5M0MpCehiHzreSzNTczkc9d"?>
<x:xmpmeta xmlns:x="adobe:ns:meta/" x:xmptk="Adobe XMP Core 5.6-c138 79.159824, 2016/09/14-01:09:01        ">
   <rdf:RDF xmlns:rdf="http://www.w3.org/1999/02/22-rdf-syntax-ns#">
      <rdf:Description rdf:about=""/>
   </rdf:RDF>
</x:xmpmeta>
                                                                                                    
                                                                                                    
                                                                                                    
                                                                                                    
                                                                                                    
                                                                                                    
                                                                                                    
                                                                                                    
                                                                                                    
                                                                                                    
                                                                                                    
                                                                                                    
                                                                                                    
                                                                                                    
                                                                                                    
                                                                                                    
                                                                                                    
                                                                                                    
                                                                                                    
                                                                                                    
                           
<?xpacket end="w"?></metadata>
<defs>
    <style>
      .cls-1 {
        fill-rule: evenodd;
        fill: url(#linear-gradient);
      }
    </style>
    <linearGradient id="linear-gradient" x1="1191" y1="1548" x2="1229" y2="1586" gradientUnits="userSpaceOnUse">
      <stop offset="0" stop-color="#802775"/>
      <stop offset="1" stop-color="#dc071d"/>
    </linearGradient>
  </defs>
  <path id="Truck_2" data-name="Truck 2" class="cls-1" d="M1234.95,1566.94v-11.98a0.9,0.9,0,0,0-.9-0.9h-17.09v-5.17a0.9,0.9,0,0,0-.9-0.9H1185.9a0.9,0.9,0,0,0-.9.9v30.16a0.9,0.9,0,0,0,.9.9h3.03a0.9,0.9,0,0,0,0-1.8h-2.14v-28.37h28.37v22.56a0.9,0.9,0,1,0,1.8,0v-16.49h7.2v11.19a0.9,0.9,0,0,0,.9.9h8.1v10.21h-2.11a0.9,0.9,0,0,0,0,1.8h3a0.9,0.9,0,0,0,.9-0.9v-11.91c0-.04.04-0.06,0.04-0.1S1234.95,1566.98,1234.95,1566.94Zm-1.79-.8h-7.21v-10.29h7.21v10.29Zm-11.12,5.98a6.935,6.935,0,1,0,6.92,6.93A6.937,6.937,0,0,0,1222.04,1572.12Zm0,12.07a5.135,5.135,0,1,1,5.13-5.14A5.143,5.143,0,0,1,1222.04,1584.19Zm-24.1-12.07a6.93,6.93,0,1,0,6.93,6.93A6.937,6.937,0,0,0,1197.94,1572.12Zm0,12.07a5.135,5.135,0,1,1,5.13-5.14A5.149,5.149,0,0,1,1197.94,1584.19Zm15.09-6.04h-6.07a0.9,0.9,0,0,0,0,1.8h6.07A0.9,0.9,0,0,0,1213.03,1578.15Z" transform="translate(-1185 -1548)"/>
</svg>
