<svg xmlns="http://www.w3.org/2000/svg" width="50" height="38" viewBox="0 0 50 38"><defs><style>.cls-1{fill-rule:evenodd;fill:url(#linear-gradient)}</style><linearGradient id="linear-gradient" x1="1191" y1="1548" x2="1229" y2="1586" gradientUnits="userSpaceOnUse"><stop offset="0" stop-color="#802775"/><stop offset="1" stop-color="#dc071d"/></linearGradient></defs><path id="Truck_2" data-name="Truck 2" class="cls-1" d="M1234.95 1566.94v-11.98a.9.9 0 0 0-.9-.9h-17.09v-5.17a.9.9 0 0 0-.9-.9h-30.16a.9.9 0 0 0-.9.9v30.16a.9.9 0 0 0 .9.9h3.03a.9.9 0 0 0 0-1.8h-2.14v-28.37h28.37v22.56a.9.9 0 1 0 1.8 0v-16.49h7.2v11.19a.9.9 0 0 0 .9.9h8.1v10.21h-2.11a.9.9 0 0 0 0 1.8h3a.9.9 0 0 0 .9-.9v-11.91c0-.04.04-.06.04-.1s-.04-.06-.04-.1zm-1.79-.8h-7.21v-10.29h7.21v10.29zm-11.12 5.98a6.935 6.935 0 1 0 6.92 6.93 6.937 6.937 0 0 0-6.92-6.93zm0 12.07a5.135 5.135 0 1 1 5.13-5.14 5.143 5.143 0 0 1-5.13 5.14zm-24.1-12.07a6.93 6.93 0 1 0 6.93 6.93 6.937 6.937 0 0 0-6.93-6.93zm0 12.07a5.135 5.135 0 1 1 5.13-5.14 5.149 5.149 0 0 1-5.13 5.14zm15.09-6.04h-6.07a.9.9 0 0 0 0 1.8h6.07a.9.9 0 0 0 0-1.8z" transform="translate(-1185 -1548)"/></svg>