<svg xmlns="http://www.w3.org/2000/svg" width="50" height="47" viewBox="0 0 50 47"><defs><style>.cls-1{fill-rule:evenodd;fill:url(#linear-gradient)}</style><linearGradient id="linear-gradient" x1="786.5" y1="1820" x2="833.5" y2="1867" gradientUnits="userSpaceOnUse"><stop offset="0" stop-color="#802775"/><stop offset="1" stop-color="#dc071d"/></linearGradient></defs><path id="Wallet" class="cls-1" d="M834.986 1833.08a.9.9 0 0 0-.9-.9h-2.6l-8.772-8.86a.911.911 0 0 0-1.264 0l-5.307 5.35-8.314-8.39a.855.855 0 0 0-.634-.27.865.865 0 0 0-.635.27l-11.785 11.9H788.9a2.262 2.262 0 0 1-2.107-2.14 2.129 2.129 0 0 1 2.114-2.14h9.444a.905.905 0 0 0 0-1.81H788.9a3.846 3.846 0 0 0-2.767 1.16 3.9 3.9 0 0 0-1.137 2.79v33.01a3.921 3.921 0 0 0 3.9 3.94h45.183a.9.9 0 0 0 .9-.9v-33.01zm-1.793 20.16h-16.21v-4.27h16.21v4.27zm-11.112-28.01l6.87 6.95h-9.341l-2.2-2.23zm-14.887-3.04l9.876 9.99h-19.759zm-18.29 42.99a2.124 2.124 0 0 1-2.114-2.13v-29.69a3.423 3.423 0 0 0 .43.2 2.279 2.279 0 0 0 .345.15 3.635 3.635 0 0 0 1.317.26c.006 0 .009.01.015.01h44.3v13.17h-17.111a.9.9 0 0 0-.893.91v6.08a.9.9 0 0 0 .893.91h17.107v10.13H788.9zm39.2-37.28h5.989a.905.905 0 0 0 0-1.81H828.1a.905.905 0 0 0 0 1.81z" transform="translate(-785 -1820)"/></svg>