<svg xmlns="http://www.w3.org/2000/svg" xmlns:xlink="http://www.w3.org/1999/xlink" width="50" height="47" viewBox="0 0 50 47">
  <metadata><?xpacket begin="﻿" id="W5M0MpCehiHzreSzNTczkc9d"?>
<x:xmpmeta xmlns:x="adobe:ns:meta/" x:xmptk="Adobe XMP Core 5.6-c138 79.159824, 2016/09/14-01:09:01        ">
   <rdf:RDF xmlns:rdf="http://www.w3.org/1999/02/22-rdf-syntax-ns#">
      <rdf:Description rdf:about=""/>
   </rdf:RDF>
</x:xmpmeta>
                                                                                                    
                                                                                                    
                                                                                                    
                                                                                                    
                                                                                                    
                                                                                                    
                                                                                                    
                                                                                                    
                                                                                                    
                                                                                                    
                                                                                                    
                                                                                                    
                                                                                                    
                                                                                                    
                                                                                                    
                                                                                                    
                                                                                                    
                                                                                                    
                                                                                                    
                                                                                                    
                           
<?xpacket end="w"?></metadata>
<defs>
    <style>
      .cls-1 {
        fill-rule: evenodd;
        fill: url(#linear-gradient);
      }
    </style>
    <linearGradient id="linear-gradient" x1="786.5" y1="1820" x2="833.5" y2="1867" gradientUnits="userSpaceOnUse">
      <stop offset="0" stop-color="#802775"/>
      <stop offset="1" stop-color="#dc071d"/>
    </linearGradient>
  </defs>
  <path id="Wallet" class="cls-1" d="M834.986,1833.08a0.9,0.9,0,0,0-.9-0.9h-2.6l-8.772-8.86a0.911,0.911,0,0,0-1.264,0l-5.307,5.35-8.314-8.39a0.855,0.855,0,0,0-.634-0.27,0.865,0.865,0,0,0-.635.27l-11.785,11.9H788.9a2.262,2.262,0,0,1-2.107-2.14,2.129,2.129,0,0,1,2.114-2.14h9.444a0.905,0.905,0,0,0,0-1.81H788.9a3.846,3.846,0,0,0-2.767,1.16,3.9,3.9,0,0,0-1.137,2.79v33.01a3.921,3.921,0,0,0,3.9,3.94h45.183a0.9,0.9,0,0,0,.9-0.9v-11.94s0,0,0-.01v-6.08l0-.01v-14.97Zm-1.793,20.16h-16.21v-4.27h16.21v4.27Zm-11.112-28.01,6.87,6.95H819.61l-2.2-2.23Zm-14.887-3.04,9.876,9.99H797.311Zm-18.29,42.99a2.124,2.124,0,0,1-2.114-2.13v-29.69a3.423,3.423,0,0,0,.43.2,2.279,2.279,0,0,0,.345.15,3.635,3.635,0,0,0,1.317.26c0.006,0,.009.01,0.015,0.01h44.3v13.17H816.086a0.9,0.9,0,0,0-.893.91v6.08a0.9,0.9,0,0,0,.893.91h17.107v10.13H788.9Zm39.2-37.28h5.989a0.905,0.905,0,0,0,0-1.81H828.1A0.905,0.905,0,0,0,828.1,1827.9Z" transform="translate(-785 -1820)"/>
</svg>
