<svg xmlns="http://www.w3.org/2000/svg" xmlns:xlink="http://www.w3.org/1999/xlink" width="42" height="44" viewBox="0 0 42 44">
  <metadata><?xpacket begin="﻿" id="W5M0MpCehiHzreSzNTczkc9d"?>
<x:xmpmeta xmlns:x="adobe:ns:meta/" x:xmptk="Adobe XMP Core 5.6-c138 79.159824, 2016/09/14-01:09:01        ">
   <rdf:RDF xmlns:rdf="http://www.w3.org/1999/02/22-rdf-syntax-ns#">
      <rdf:Description rdf:about=""/>
   </rdf:RDF>
</x:xmpmeta>
                                                                                                    
                                                                                                    
                                                                                                    
                                                                                                    
                                                                                                    
                                                                                                    
                                                                                                    
                                                                                                    
                                                                                                    
                                                                                                    
                                                                                                    
                                                                                                    
                                                                                                    
                                                                                                    
                                                                                                    
                                                                                                    
                                                                                                    
                                                                                                    
                                                                                                    
                                                                                                    
                           
<?xpacket end="w"?></metadata>
<defs>
    <style>
      .cls-1 {
        fill-rule: evenodd;
        fill: url(#linear-gradient);
      }
    </style>
    <linearGradient id="linear-gradient" x1="431" y1="1866" x2="389" y2="1824" gradientUnits="userSpaceOnUse">
      <stop offset="0" stop-color="#802775"/>
      <stop offset="1" stop-color="#dc071d"/>
    </linearGradient>
  </defs>
  <path id="Wrench_2" data-name="Wrench 2" class="cls-1" d="M418.679,1867H401.31a0.845,0.845,0,0,1-.857-0.83v-7.29a20.033,20.033,0,0,1-.885-35.76,0.872,0.872,0,0,1,.857,0,0.839,0.839,0,0,1,.43.72v13.71l9.14,5.13,9.133-5.13v-13.72a0.855,0.855,0,0,1,.43-0.73,0.927,0.927,0,0,1,.857,0,20.2,20.2,0,0,1,10.576,17.54,20.458,20.458,0,0,1-11.455,18.25v7.28A0.842,0.842,0,0,1,418.679,1867Zm-16.509-1.67h15.653v-6.95a0.832,0.832,0,0,1,.486-0.76,18.807,18.807,0,0,0,10.965-16.97,18.435,18.435,0,0,0-8.429-15.31v12.69a0.855,0.855,0,0,1-.43.73l-9.99,5.61a0.878,0.878,0,0,1-.86,0l-10-5.61a0.857,0.857,0,0,1-.43-0.73v-12.67a18.365,18.365,0,0,0,2.546,32.25,0.829,0.829,0,0,1,.486.75v6.97Z" transform="translate(-389 -1823)"/>
</svg>
