<svg xmlns="http://www.w3.org/2000/svg" width="42" height="44" viewBox="0 0 42 44"><defs><style>.cls-1{fill-rule:evenodd;fill:url(#linear-gradient)}</style><linearGradient id="linear-gradient" x1="431" y1="1866" x2="389" y2="1824" gradientUnits="userSpaceOnUse"><stop offset="0" stop-color="#802775"/><stop offset="1" stop-color="#dc071d"/></linearGradient></defs><path id="Wrench_2" data-name="Wrench 2" class="cls-1" d="M418.679 1867H401.31a.845.845 0 0 1-.857-.83v-7.29a20.033 20.033 0 0 1-.885-35.76.872.872 0 0 1 .857 0 .839.839 0 0 1 .43.72v13.71l9.14 5.13 9.133-5.13v-13.72a.855.855 0 0 1 .43-.73.927.927 0 0 1 .857 0 20.2 20.2 0 0 1 10.576 17.54 20.458 20.458 0 0 1-11.455 18.25v7.28a.842.842 0 0 1-.857.83zm-16.509-1.67h15.653v-6.95a.832.832 0 0 1 .486-.76 18.807 18.807 0 0 0 10.965-16.97 18.435 18.435 0 0 0-8.429-15.31v12.69a.855.855 0 0 1-.43.73l-9.99 5.61a.878.878 0 0 1-.86 0l-10-5.61a.857.857 0 0 1-.43-.73v-12.67a18.365 18.365 0 0 0 2.546 32.25.829.829 0 0 1 .486.75v6.97z" transform="translate(-389 -1823)"/></svg>